<svg xmlns="http://www.w3.org/2000/svg" viewBox="0 0 800 1000" fill="none" stroke="#6b7355" stroke-width="6" stroke-linecap="round" stroke-linejoin="round">
  <rect width="800" height="1000" fill="#dfe3cd" stroke="none"/>
  <circle cx="400" cy="470" r="300" fill="#fbfaf4" stroke="none"/>
  <!-- scissors blades (outlined) -->
  <g>
    <path d="M330 640L500 190" stroke-width="30"/>
    <path d="M470 640L300 190" stroke-width="30"/>
    <path d="M330 640L500 190" stroke="#fbfaf4" stroke-width="18"/>
    <path d="M470 640L300 190" stroke="#fbfaf4" stroke-width="18"/>
  </g>
  <circle cx="400" cy="450" r="14" fill="#e9d3a8"/>
  <!-- handles -->
  <circle cx="300" cy="730" r="70" fill="#e9d3a8"/>
  <circle cx="500" cy="730" r="70" fill="#e9d3a8"/>
  <circle cx="300" cy="730" r="38" fill="#fbfaf4"/>
  <circle cx="500" cy="730" r="38" fill="#fbfaf4"/>
  <!-- comb -->
  <rect x="190" y="880" width="420" height="50" rx="16" fill="#e9d3a8"/>
  <path d="M220 930v36M260 930v36M300 930v36M340 930v36M380 930v36M420 930v36M460 930v36M500 930v36M540 930v36M580 930v36"/>
  <!-- hair strands -->
  <path d="M120 300c40 30 40 70 0 100s-40 70 0 100" stroke="#b9c49a"/>
  <path d="M680 300c-40 30-40 70 0 100s40 70 0 100" stroke="#b9c49a"/>
  <!-- sparkles -->
  <g stroke="#e9d3a8"><path d="M200 140v36M182 158h36"/><path d="M620 120v30M605 135h30"/><path d="M660 640v26M647 653h26"/></g>
</svg>
